<svg xmlns="http://www.w3.org/2000/svg" width="733.333" height="733.333" viewBox="-10 57 500 500"><path fill="#1f4c8e" d="M77.5 67.5c-40.7 9-71.1 41.9-76.5 82.6C.2 156 0 200 .3 296c.3 124.4.5 138.2 2 145 5.9 26.4 16.9 47.4 34.5 66.1 19.3 20.5 43 33.9 71.2 40.1l10.5 2.3h273l8.1-2.2c18.2-4.8 32.7-12.9 44.8-25 12.4-12.4 20.8-26.6 25.8-43.8l2.3-8v-326l-2.4-8c-9.8-33.4-33.6-57.3-67.2-67.7l-7.4-2.3-156-.2c-126.8-.1-157.1.1-162 1.2m175.1 79.3c3 2 3.4 5.5 3.4 29.1 0 22.8-.1 24.2-2 26.1-2 2-6.5 2.6-8.6 1.2-3-2-3.4-5.5-3.4-28.5 0-22.2.1-23.6 2.1-26.1 2-2.6 6.1-3.5 8.5-1.8m66.7 41c2.9 2.5 2 6.7-3.4 15.9-7.8 13.2-9.5 15.3-13 15.3-3.2 0-6.9-3-6.9-5.8 0-.9 3-7.1 6.8-13.7 8.1-14.4 10.9-16.4 16.5-11.7m-130 1.4c3.3 4.4 11.7 21.3 11.7 23.6 0 3.4-2.9 6.2-6.4 6.2-4.1 0-5-1-11.9-14.1-6.1-11.5-6.5-13.2-4.1-16.7s7.7-3 10.7 1m-49.8 45c17.1 9.7 21.6 12.7 22.4 14.8 1.2 3.6-.6 7.2-4.3 8.5-2.5.8-4.1.3-14-4.9-6.1-3.2-11.8-6.5-12.6-7.2s-5.5-3.5-10.5-6.4c-9.3-5.3-11.5-7.2-11.5-10.1 0-2.8 3.9-6.9 6.6-6.9 1.4 0 12.1 5.5 23.9 12.2M386 224c2.3 2.3 2.6 5.8.8 8.3-2.6 3.3-41.3 25.7-44.5 25.7-5.2 0-8.4-7.8-4.5-11.3 3.5-3.2 41.8-24.7 44-24.7 1.2 0 3.1.9 4.2 2m-120 10.6c3.6.8 10.8 3.5 16 6.1 8 3.9 10.8 5.9 18.5 13.7 6.9 6.9 10.1 11 13.3 17.3 5.2 10.1 8.2 21.3 8.2 30.9v7.2l5.1 3.2c11.3 6.9 21.4 19.2 25.5 30.9 1.6 4.6 2.5 5.6 6.4 7.6 11.8 6 21.7 16 27.8 28.1 8.8 17.4 8.3 40-1.1 57.9-4.4 8.4-16.4 20.1-25.2 24.7-15.1 7.8-6.5 7.3-123.5 7.3-98.6 0-104.8-.1-110.5-1.8-20.9-6.5-37.9-23.3-43.9-43.5-8.2-28.2 5.8-59.3 33-73 8.2-4.1 15.6-6.1 23.6-6.4l6.6-.3.7-5.3c2-15.8 11.5-31.8 24.4-41.2 3.9-2.9 6.1-5.2 6.1-6.5.1-3.6 6.4-18.8 10.3-24.6 10.7-16.1 26-27.2 44-31.9 9-2.4 25.6-2.6 34.7-.4m-122.6 65.5c4.7 2.2 5.2 9.5.7 11.8-1.1.6-7.6 1.1-14.8 1.1-14.8 0-17.3-.9-17.3-6.3 0-6.5 2.6-7.6 17.2-7.7 6.7 0 12.8.5 14.2 1.1m241.1 1.4c1.4 1.3 2.5 3.3 2.5 4.5 0 1.1-1.1 3.2-2.5 4.5-2.3 2.4-2.9 2.5-15.3 2.5-11.6 0-13.2-.2-15.6-2.1-3.5-2.8-3.5-7 0-9.8 2.4-1.9 4-2.1 15.6-2.1 12.4 0 13 .1 15.3 2.5"/></svg>